{
  "accessors": [
    {
      "bufferView": 2,
      "componentType": 5126,
      "count": 814,
      "max": [
        3.1537210941314697,
        2.1173818111419678,
        2.1713330745697021
      ],
      "min": [
        -1.4387210001132189e-07,
        -2.1173818111419678,
        -2.1713330745697021
      ],
      "type": "VEC3"
    },
    {
      "bufferView": 2,
      "byteOffset": 9768,
      "componentType": 5126,
      "count": 814,
      "max": [
        1,
        1,
        1
      ],
      "min": [
        -1,
        -1,
        -1
      ],
      "type": "VEC3"
    },
    {
      "bufferView": 3,
      "componentType": 5126,
      "count": 814,
      "max": [
        1,
        0.9999997615814209,
        0.99999958276748657,
        1
      ],
      "min": [
        -1,
        -1,
        -1,
        1
      ],
      "type": "VEC4"
    },
    {
      "bufferView": 3,
      "byteOffset": 13024,
      "componentType": 5126,
      "count": 814,
      "max": [
        0.94901961088180542,
        1,
        1,
        1
      ],
      "min": [
        0,
        0.34509804844856262,
        0.10588235408067703,
        1
      ],
      "type": "VEC4"
    },
    {
      "bufferView": 1,
      "componentType": 5126,
      "count": 814,
      "max": [
        0.9878842830657959,
        0.98239392042160034
      ],
      "min": [
        0.0049133789725601673,
        0.0049133789725601673
      ],
      "type": "VEC2"
    },
    {
      "bufferView": 1,
      "byteOffset": 6512,
      "componentType": 5126,
      "count": 814,
      "max": [
        0.9878842830657959,
        0.98239392042160034
      ],
      "min": [
        0.0049133789725601673,
        0.0049133789725601673
      ],
      "type": "VEC2"
    },
    {
      "bufferView": 0,
      "componentType": 5125,
      "count": 2460,
      "max": [
        813
      ],
      "min": [
        0
      ],
      "type": "SCALAR"
    },
    {
      "bufferView": 2,
      "byteOffset": 19536,
      "componentType": 5126,
      "count": 160,
      "max": [
        3.2153580188751221,
        1.6021356582641602,
        1.6021356582641602
      ],
      "min": [
        3.142885684967041,
        -1.6021356582641602,
        -1.6021356582641602
      ],
      "type": "VEC3"
    },
    {
      "bufferView": 2,
      "byteOffset": 21456,
      "componentType": 5126,
      "count": 160,
      "max": [
        1,
        0.99518477916717529,
        0.99518477916717529
      ],
      "min": [
        0,
        -0.99518483877182007,
        -0.99518489837646484
      ],
      "type": "VEC3"
    },
    {
      "bufferView": 3,
      "byteOffset": 26048,
      "componentType": 5126,
      "count": 160,
      "max": [
        1,
        9.2276923169265501e-06,
        0.95694130659103394,
        1
      ],
      "min": [
        -1,
        -0.29029121994972229,
        -9.2864729595021345e-06,
        1
      ],
      "type": "VEC4"
    },
    {
      "bufferView": 3,
      "byteOffset": 28608,
      "componentType": 5126,
      "count": 160,
      "max": [
        1,
        0.16078431904315948,
        0.72156864404678345,
        1
      ],
      "min": [
        1,
        0.16078431904315948,
        0.72156864404678345,
        1
      ],
      "type": "VEC4"
    },
    {
      "bufferView": 1,
      "byteOffset": 13024,
      "componentType": 5126,
      "count": 160,
      "max": [
        0.97080177068710327,
        0.90551912784576416
      ],
      "min": [
        0.0049133789725601673,
        0.18538205325603485
      ],
      "type": "VEC2"
    },
    {
      "bufferView": 1,
      "byteOffset": 14304,
      "componentType": 5126,
      "count": 160,
      "max": [
        0.97080177068710327,
        0.90551912784576416
      ],
      "min": [
        0.0049133789725601673,
        0.18538205325603485
      ],
      "type": "VEC2"
    },
    {
      "bufferView": 0,
      "byteOffset": 9840,
      "componentType": 5125,
      "count": 282,
      "max": [
        159
      ],
      "min": [
        0
      ],
      "type": "SCALAR"
    },
    {
      "bufferView": 2,
      "byteOffset": 23376,
      "componentType": 5126,
      "count": 284,
      "max": [
        5.1530656814575195,
        1.0730986595153809,
        1.0730986595153809
      ],
      "min": [
        3.2571499347686768,
        -1.0730986595153809,
        -1.0730986595153809
      ],
      "type": "VEC3"
    },
    {
      "bufferView": 2,
      "byteOffset": 26784,
      "componentType": 5126,
      "count": 284,
      "max": [
        0.89652174711227417,
        0.98585844039916992,
        0.98585844039916992
      ],
      "min": [
        -0.43853098154067993,
        -0.98585844039916992,
        -0.98585844039916992
      ],
      "type": "VEC3"
    },
    {
      "bufferView": 3,
      "byteOffset": 31168,
      "componentType": 5126,
      "count": 284,
      "max": [
        0.94161063432693481,
        0.837677001953125,
        0.96495115756988525,
        1
      ],
      "min": [
        -0.98585891723632812,
        -0.83701443672180176,
        -0.83701449632644653,
        1
      ],
      "type": "VEC4"
    },
    {
      "bufferView": 3,
      "byteOffset": 35712,
      "componentType": 5126,
      "count": 284,
      "max": [
        1,
        0.10196078568696976,
        0.10196078568696976,
        1
      ],
      "min": [
        1,
        0.10196078568696976,
        0.10196078568696976,
        1
      ],
      "type": "VEC4"
    },
    {
      "bufferView": 1,
      "byteOffset": 15584,
      "componentType": 5126,
      "count": 284,
      "max": [
        0.96383833885192871,
        0.99508661031723022
      ],
      "min": [
        0.23444229364395142,
        0.0049133789725601673
      ],
      "type": "VEC2"
    },
    {
      "bufferView": 1,
      "byteOffset": 17856,
      "componentType": 5126,
      "count": 284,
      "max": [
        0.96383833885192871,
        0.99508661031723022
      ],
      "min": [
        0.23444229364395142,
        0.0049133789725601673
      ],
      "type": "VEC2"
    },
    {
      "bufferView": 0,
      "byteOffset": 10968,
      "componentType": 5125,
      "count": 858,
      "max": [
        283
      ],
      "min": [
        0
      ],
      "type": "SCALAR"
    },
    {
      "bufferView": 2,
      "byteOffset": 30192,
      "componentType": 5126,
      "count": 152,
      "max": [
        3.1000680923461914,
        1.7397786378860474,
        1.7137434482574463
      ],
      "min": [
        2.7476768493652344,
        -1.7397786378860474,
        -1.7137434482574463
      ],
      "type": "VEC3"
    },
    {
      "bufferView": 2,
      "byteOffset": 32016,
      "componentType": 5126,
      "count": 152,
      "max": [
        0.65323597192764282,
        1,
        1
      ],
      "min": [
        0,
        -1,
        -1
      ],
      "type": "VEC3"
    },
    {
      "bufferView": 3,
      "byteOffset": 40256,
      "componentType": 5126,
      "count": 152,
      "max": [
        0.70053017139434814,
        0.6532360315322876,
        0.98502486944198608,
        1
      ],
      "min": [
        -1,
        -0.6532360315322876,
        -0.98502486944198608,
        -1
      ],
      "type": "VEC4"
    },
    {
      "bufferView": 3,
      "byteOffset": 42688,
      "componentType": 5126,
      "count": 152,
      "max": [
        0.21960784494876862,
        1,
        0.25098040699958801,
        1
      ],
      "min": [
        0.21960784494876862,
        1,
        0.25098040699958801,
        1
      ],
      "type": "VEC4"
    },
    {
      "bufferView": 1,
      "byteOffset": 20128,
      "componentType": 5126,
      "count": 152,
      "max": [
        0.81591445207595825,
        0.95854604244232178
      ],
      "min": [
        0.57755255699157715,
        0.88314032554626465
      ],
      "type": "VEC2"
    },
    {
      "bufferView": 1,
      "byteOffset": 21344,
      "componentType": 5126,
      "count": 152,
      "max": [
        0.81591445207595825,
        0.95854604244232178
      ],
      "min": [
        0.57755255699157715,
        0.88314032554626465
      ],
      "type": "VEC2"
    },
    {
      "bufferView": 0,
      "byteOffset": 14400,
      "componentType": 5125,
      "count": 408,
      "max": [
        151
      ],
      "min": [
        0
      ],
      "type": "SCALAR"
    }
  ],
  "asset": {
    "extras": {
      "author": "Marcin.Kwiatkowski (https://sketchfab.com/Marcin.Kwiatkowski)",
      "license": "CC-BY-4.0 (http://creativecommons.org/licenses/by/4.0/)",
      "source": "https://sketchfab.com/3d-models/button-emergance-9dd1f944f1db4153afaa236a5e10637b",
      "title": "Button Emergance"
    },
    "generator": "Sketchfab-7.95.0",
    "version": "2.0"
  },
  "bufferViews": [
    {
      "buffer": 0,
      "byteLength": 16032,
      "byteOffset": 0,
      "name": "floatBufferViews",
      "target": 34963
    },
    {
      "buffer": 0,
      "byteLength": 22560,
      "byteOffset": 16032,
      "byteStride": 8,
      "name": "floatBufferViews",
      "target": 34962
    },
    {
      "buffer": 0,
      "byteLength": 33840,
      "byteOffset": 38592,
      "byteStride": 12,
      "name": "floatBufferViews",
      "target": 34962
    },
    {
      "buffer": 0,
      "byteLength": 45120,
      "byteOffset": 72432,
      "byteStride": 16,
      "name": "floatBufferViews",
      "target": 34962
    }
  ],
  "buffers": [
    {
      "byteLength": 117552,
      "uri": "scene.bin"
    }
  ],
  "images": [
    {
      "uri": "textures/M_all_baseColor.jpeg"
    },
    {
      "uri": "textures/M_all_metallicRoughness.png"
    },
    {
      "uri": "textures/M_all_normal.png"
    }
  ],
  "materials": [
    {
      "doubleSided": true,
      "name": "M_all",
      "normalTexture": {
        "index": 2,
        "scale": 1,
        "texCoord": 0
      },
      "occlusionTexture": {
        "index": 1,
        "strength": 1,
        "texCoord": 0
      },
      "pbrMetallicRoughness": {
        "baseColorFactor": [
          1,
          1,
          1,
          1
        ],
        "baseColorTexture": {
          "index": 0,
          "texCoord": 0
        },
        "metallicFactor": 1,
        "metallicRoughnessTexture": {
          "index": 1,
          "texCoord": 0
        },
        "roughnessFactor": 1
      }
    }
  ],
  "meshes": [
    {
      "name": "body_M_all_0",
      "primitives": [
        {
          "attributes": {
            "COLOR_0": 3,
            "NORMAL": 1,
            "POSITION": 0,
            "TANGENT": 2,
            "TEXCOORD_0": 4,
            "TEXCOORD_1": 5
          },
          "indices": 6,
          "material": 0,
          "mode": 4
        }
      ]
    },
    {
      "name": "Circle_M_all_0",
      "primitives": [
        {
          "attributes": {
            "COLOR_0": 10,
            "NORMAL": 8,
            "POSITION": 7,
            "TANGENT": 9,
            "TEXCOORD_0": 11,
            "TEXCOORD_1": 12
          },
          "indices": 13,
          "material": 0,
          "mode": 4
        }
      ]
    },
    {
      "name": "up_M_all_0",
      "primitives": [
        {
          "attributes": {
            "COLOR_0": 17,
            "NORMAL": 15,
            "POSITION": 14,
            "TANGENT": 16,
            "TEXCOORD_0": 18,
            "TEXCOORD_1": 19
          },
          "indices": 20,
          "material": 0,
          "mode": 4
        }
      ]
    },
    {
      "name": "Cylinder_M_all_0",
      "primitives": [
        {
          "attributes": {
            "COLOR_0": 24,
            "NORMAL": 22,
            "POSITION": 21,
            "TANGENT": 23,
            "TEXCOORD_0": 25,
            "TEXCOORD_1": 26
          },
          "indices": 27,
          "material": 0,
          "mode": 4
        }
      ]
    }
  ],
  "nodes": [
    {
      "children": [
        1
      ],
      "name": "RootNode (gltf orientation matrix)",
      "rotation": [
        -0.70710678118654746,
        -0,
        -0,
        0.70710678118654757
      ]
    },
    {
      "children": [
        2
      ],
      "name": "RootNode (model correction matrix)"
    },
    {
      "children": [
        3
      ],
      "matrix": [
        1,
        0,
        0,
        0,
        0,
        0,
        1,
        0,
        0,
        -1,
        0,
        0,
        0,
        0,
        0,
        1
      ],
      "name": "buttonEmergance.fbx"
    },
    {
      "children": [
        4,
        6,
        8,
        10
      ],
      "name": "RootNode"
    },
    {
      "children": [
        5
      ],
      "matrix": [
        1,
        0,
        0,
        0,
        0,
        -1.6292067939183141e-07,
        -0.99999999999998679,
        0,
        0,
        0.99999999999998679,
        -1.6292067939183141e-07,
        0,
        0,
        0,
        0,
        1
      ],
      "name": "body"
    },
    {
      "mesh": 0,
      "name": "body_M_all_0"
    },
    {
      "children": [
        7
      ],
      "matrix": [
        1,
        0,
        0,
        0,
        0,
        -1.6292067939183141e-07,
        -0.99999999999998679,
        0,
        0,
        0.99999999999998679,
        -1.6292067939183141e-07,
        0,
        0,
        0,
        0,
        1
      ],
      "name": "Circle"
    },
    {
      "mesh": 1,
      "name": "Circle_M_all_0"
    },
    {
      "children": [
        9
      ],
      "matrix": [
        1,
        0,
        0,
        0,
        0,
        -1.6292067939183141e-07,
        -0.99999999999998679,
        0,
        0,
        0.99999999999998679,
        -1.6292067939183141e-07,
        0,
        0,
        0,
        0,
        1
      ],
      "name": "up"
    },
    {
      "mesh": 2,
      "name": "up_M_all_0"
    },
    {
      "children": [
        11
      ],
      "matrix": [
        1,
        0,
        0,
        0,
        0,
        -1.6292067939183141e-07,
        -0.99999999999998679,
        0,
        0,
        0.99999999999998679,
        -1.6292067939183141e-07,
        0,
        0,
        0,
        -0.032810118049383163,
        1
      ],
      "name": "Cylinder"
    },
    {
      "mesh": 3,
      "name": "Cylinder_M_all_0"
    }
  ],
  "samplers": [
    {
      "magFilter": 9729,
      "minFilter": 9987,
      "wrapS": 10497,
      "wrapT": 10497
    }
  ],
  "scene": 0,
  "scenes": [
    {
      "name": "OSG_Scene",
      "nodes": [
        0
      ]
    }
  ],
  "textures": [
    {
      "sampler": 0,
      "source": 0
    },
    {
      "sampler": 0,
      "source": 1
    },
    {
      "sampler": 0,
      "source": 2
    }
  ]
}

